<svg xmlns="http://www.w3.org/2000/svg" width="1em" height="1em" viewBox="0 0 256 256"><path fill="currentColor" d="M112 112h32v32h-32Zm128 40a8 8 0 0 1-8 8h-16v40a16 16 0 0 1-16 16h-40v16a8 8 0 0 1-16 0v-16h-32v16a8 8 0 0 1-16 0v-16H56a16 16 0 0 1-16-16v-40H24a8 8 0 0 1 0-16h16v-32H24a8 8 0 0 1 0-16h16V56a16 16 0 0 1 16-16h40V24a8 8 0 0 1 16 0v16h32V24a8 8 0 0 1 16 0v16h40a16 16 0 0 1 16 16v40h16a8 8 0 0 1 0 16h-16v32h16a8 8 0 0 1 8 8Zm-80-48a8 8 0 0 0-8-8h-48a8 8 0 0 0-8 8v48a8 8 0 0 0 8 8h48a8 8 0 0 0 8-8Z"/></svg>